<svg xmlns="http://www.w3.org/2000/svg" viewBox="0 0 24 24">
  <path d="M12 .5C5.73.5.5 5.73.5 12c0 5.08 3.29 9.38 7.86 10.9.58.1.79-.25.79-.56v-2c-3.2.7-3.88-1.54-3.88-1.54-.53-1.35-1.3-1.7-1.3-1.7-1.06-.73.08-.72.08-.72 1.17.08 1.78 1.2 1.78 1.2 1.04 1.78 2.74 1.27 3.41.97.1-.75.41-1.27.74-1.56-2.55-.29-5.23-1.28-5.23-5.7 0-1.26.45-2.29 1.2-3.1-.12-.29-.52-1.45.11-3.02 0 0 .97-.31 3.18 1.19a11.08 11.08 0 0 1 5.8 0C18.47 5.1 19.44 5.4 19.44 5.4c.63 1.57.23 2.73.11 3.02.75.81 1.2 1.84 1.2 3.1 0 4.43-2.69 5.41-5.25 5.69.42.36.8 1.09.8 2.21v3.27c0 .31.21.67.8.56A10.99 10.99 0 0 0 23.5 12C23.5 5.73 18.27.5 12 .5Z"/>
</svg>