<svg xmlns="http://www.w3.org/2000/svg" viewBox="0 0 24 24">
  <g transform="scale(1.08) translate(-0.9,-0.9)">
    <path d="M17.47 14.53c-.29-.14-1.7-.84-1.96-.93-.26-.1-.45-.14-.64.14-.19.29-.74.93-.9 1.12-.17.19-.34.21-.64.07-.29-.14-1.23-.45-2.33-1.43-.86-.77-1.44-1.72-1.61-2.01-.17-.29-.02-.45.13-.59.13-.13.29-.34.43-.51.14-.17.19-.29.29-.48.1-.19.05-.36-.02-.5-.07-.14-.64-1.54-.88-2.11-.23-.55-.47-.48-.64-.48h-.55c-.19 0-.5.07-.76.36-.26.29-1 1-1 2.43 0 1.43 1.03 2.81 1.18 3 .14.19 2.03 3.1 4.93 4.35.69.3 1.23.48 1.65.61.69.22 1.31.19 1.8.12.55-.08 1.7-.69 1.94-1.36.24-.67.24-1.24.17-1.36-.07-.12-.26-.19-.55-.33Z"/>
    <path d="M12.04 2A10.06 10.06 0 0 0 2 12.04c0 1.78.47 3.5 1.36 5.02L2 22l5.08-1.32a10.02 10.02 0 0 0 4.96 1.27h.01A10.06 10.06 0 0 0 22 12.04 10.05 10.05 0 0 0 12.04 2Zm0 18.2h-.01A8.18 8.18 0 0 1 7.6 19l-.36-.22-3.02.79.81-2.95-.24-.38A8.16 8.16 0 1 1 12.03 20.2Z"/>
  </g>
</svg>
